# This file uses centimeters as units for non-parametric coordinates.

mtllib CornEar_Open_RT_Lower.mtl
g default
v -0.886845 2.024590 3.965930
v -0.800261 0.758160 0.774181
v -0.800261 0.758160 0.774181
v -0.737171 4.429530 4.147080
v -0.737171 4.429530 4.147080
v -0.737171 4.429530 4.147080
v -0.551656 4.199920 2.760750
v -0.534214 1.075510 0.795765
v -0.534214 1.075510 0.795765
v -0.503467 3.950200 4.650370
v -0.503467 3.950200 4.650370
v -0.233398 0.383997 1.461330
v -0.233398 0.383997 1.461330
v -0.221161 0.389599 -0.488876
v -0.221161 0.389599 -0.488876
v -0.083460 4.682590 3.931920
v -0.083460 4.682590 3.931920
v -0.038579 -0.550129 0.479906
v -0.038579 -0.550129 0.479906
v -0.038579 -0.550129 0.479906
v 0.124379 1.353870 0.424971
v 0.124379 1.353870 0.424971
v 0.150246 4.203260 4.435210
v 0.150246 4.203260 4.435210
v 0.150246 4.203260 4.435210
v 0.159248 1.365810 0.301205
v 0.159248 1.365810 0.301205
v 0.501690 0.713649 1.118670
v 0.501690 0.713649 1.118670
v 0.562681 0.452779 1.240360
v 0.562681 0.452779 1.240360
v 0.588857 3.607990 3.437690
v 0.648543 0.018986 -0.054914
vt 0.311962 0.862126
vt 0.163108 0.885143
vt 0.164415 0.042298
vt 0.302469 0.017075
vt 0.614807 0.861740
vt 0.480323 0.855821
vt 0.479272 0.030011
vt 0.610453 0.019098
vt 0.468757 0.847812
vt 0.319867 0.866386
vt 0.322147 0.022120
vt 0.460921 0.008342
vt 0.017775 0.027355
vt 0.154820 0.045375
vt 0.151222 0.878955
vt 0.005561 0.888746
vt 0.212147 0.990310
vt 0.370105 0.987694
vt 0.788010 0.015093
vt 0.870687 0.011682
vt 0.866560 0.099265
vt 0.824963 0.998186
vt 0.748931 0.160173
vt 0.948389 0.990351
vt 0.866514 0.238771
vt 0.922376 0.014452
vt 0.996754 0.276484
vt 0.622774 0.242812
vt 0.630396 0.014053
vt 0.685499 0.018490
vt 0.698667 0.998112
vt 0.747957 0.278384
vt 0.740602 0.022926
vt 0.372942 0.876153
vt 0.239607 0.990835
vt 0.017775 0.027355
vt 0.319440 0.904804
vt 0.055907 0.912446
vt 0.151222 0.878955
vn -0.345687 -0.117866 0.930918
vn -0.774844 0.606501 0.178250
vn -0.939889 0.212705 -0.267142
vn -0.939889 0.212705 -0.267142
vn -0.298759 -0.657902 0.691309
vn -0.345687 -0.117866 0.930918
vn 0.713901 0.244436 0.656199
vn -0.345687 -0.117866 0.930918
vn -0.298759 -0.657902 0.691309
vn -0.298759 -0.657902 0.691309
vn 0.953598 -0.155844 0.257612
vn 0.713901 0.244436 0.656199
vn 0.283711 0.951899 -0.115739
vn 0.713901 0.244436 0.656199
vn 0.953598 -0.155844 0.257612
vn 0.953598 -0.155844 0.257612
vn 0.325386 0.685160 -0.651674
vn 0.283711 0.951899 -0.115739
vn -0.774844 0.606501 0.178250
vn 0.283711 0.951899 -0.115739
vn 0.325386 0.685160 -0.651674
vn 0.325386 0.685160 -0.651674
vn -0.939889 0.212705 -0.267142
vn -0.774844 0.606501 0.178250
vn -0.345687 -0.117866 0.930918
vn 0.713901 0.244436 0.656199
vn -0.774844 0.606501 0.178250
vn 0.283711 0.951899 -0.115739
vn -0.774844 0.606501 0.178250
vn 0.713901 0.244436 0.656199
vn -0.396536 0.218734 -0.891580
vn -0.173898 -0.946690 0.271178
vn -0.964523 -0.168862 -0.202930
vn -0.396536 0.218734 -0.891580
vn -0.964523 -0.168862 -0.202930
vn -0.607399 0.484332 -0.629674
vn -0.396536 0.218734 -0.891580
vn -0.607399 0.484332 -0.629674
vn 0.421016 0.582268 -0.695492
vn -0.353690 -0.791459 0.498493
vn -0.964523 -0.168862 -0.202930
vn -0.173898 -0.946690 0.271178
vn -0.173898 -0.946690 0.271178
vn 0.812439 -0.454676 0.364983
vn -0.353690 -0.791459 0.498493
vn 0.812439 -0.454676 0.364983
vn -0.173898 -0.946690 0.271178
vn 0.962646 -0.058578 -0.264350
vn 0.955934 0.212759 -0.202294
vn 0.812439 -0.454676 0.364983
vn 0.962646 -0.058578 -0.264350
vn 0.421016 0.582268 -0.695492
vn 0.955934 0.212759 -0.202294
vn 0.962646 -0.058578 -0.264350
vn 0.421016 0.582268 -0.695492
vn 0.962646 -0.058578 -0.264350
vn -0.396536 0.218734 -0.891580
s off
g CornEar_Open_RT_Lower1:Mesh
usemtl initialShadingGroup
f 10/1/1 5/2/2 9/3/3
f 9/3/4 12/4/5 10/1/6
f 23/5/7 11/6/8 13/7/9
f 13/7/10 28/8/11 23/5/12
f 16/9/13 25/10/14 29/11/15
f 29/11/16 21/12/17 16/9/18
f 4/13/19 17/14/20 22/15/21
f 22/39/22 8/16/23 4/36/24
f 11/38/25 24/17/26 4/37/27
f 17/35/28 6/18/29 23/34/30
f 14/19/31 20/20/32 3/21/33
f 14/19/34 3/21/35 7/22/36
f 14/19/37 7/22/38 26/23/39
f 1/24/40 2/25/41 19/26/42
f 19/26/43 31/27/44 1/24/45
f 30/28/46 18/29/47 33/30/48
f 32/31/49 30/28/50 33/30/51
f 27/32/52 32/31/53 33/30/54
f 27/32/55 33/30/56 15/33/57
